<svg version="1.1" id="Layer_1" xmlns="http://www.w3.org/2000/svg" xmlns:xlink="http://www.w3.org/1999/xlink" x="0px" y="0px"
	 width="100%" viewBox="0 0 496 496" enable-background="new 0 0 496 496" xml:space="preserve">
<path fill="#000000" opacity="1.000000" stroke="none" 
	d="
M343.847137,181.344696 
	C343.456421,188.676010 339.311249,191.309814 332.677979,188.876953 
	C328.147797,187.215424 326.168152,183.524170 324.788116,179.216354 
	C321.182281,167.960205 317.477539,156.735443 313.751038,145.518509 
	C313.194092,143.842102 313.054840,141.870895 311.188171,140.753983 
	C308.747314,141.031097 307.757599,143.181946 306.407318,144.744202 
	C301.275146,150.682068 296.898010,157.178329 292.670166,163.778015 
	C288.317841,170.572006 283.090668,176.563416 276.543854,181.355728 
	C272.718048,184.156296 268.827393,184.560654 264.363220,182.696411 
	C246.518494,175.244583 227.973587,172.456589 208.827332,175.725433 
	C199.722061,177.279999 192.474670,176.297226 186.699188,167.805389 
	C180.732880,159.032974 172.698151,151.764969 167.358307,142.401886 
	C164.261261,136.971451 162.161072,137.083694 158.934311,142.428360 
	C149.970779,157.275146 140.375626,171.686493 129.901108,185.516525 
	C127.132462,189.172119 123.889496,192.184586 119.921173,194.436722 
	C117.262787,195.945450 114.581032,196.480820 112.083946,194.173004 
	C109.574844,191.854065 108.195877,189.146835 109.832672,185.711365 
	C113.056915,178.943954 116.629395,172.513947 121.633911,166.718933 
	C134.262100,152.096039 143.566956,135.371475 150.358856,117.316223 
	C151.994278,112.968712 153.655807,109.255424 158.797531,108.715042 
	C163.943985,108.174171 167.278458,110.815605 169.704544,115.080666 
	C173.328979,121.452362 177.283081,127.648575 180.655258,134.148590 
	C184.659927,141.867722 190.855728,147.671326 196.778931,153.730148 
	C199.122238,156.127090 202.417603,156.450500 205.597717,156.623001 
	C218.897324,157.344437 232.199432,158.019897 245.501358,158.698013 
	C249.540649,158.903931 253.306305,160.294952 257.172058,161.277039 
	C265.614258,163.421753 269.253754,162.003525 274.093231,154.739563 
	C281.489624,143.637665 289.016479,132.667603 298.663177,123.292122 
	C301.119659,120.904701 302.668396,117.590057 304.669769,114.726280 
	C309.709351,107.515167 316.714661,107.514122 321.626099,114.798691 
	C322.730804,116.437164 323.675385,118.272514 324.271637,120.151184 
	C330.709686,140.436340 336.207733,161.021698 343.847137,181.344696 
z"/>
<path fill="#000000" opacity="1.000000" stroke="none" 
	d="
M287.300232,367.146820 
	C300.388306,362.235077 313.783020,359.158905 324.965576,350.676208 
	C329.598511,347.161865 335.143463,349.140259 339.581421,354.699982 
	C343.375397,359.452911 343.305267,364.264160 339.196533,368.636749 
	C335.707550,372.349762 331.606323,375.257263 326.439880,375.933197 
	C321.188538,376.620270 316.535828,378.745239 312.004700,381.222961 
	C295.573029,390.208160 277.835846,393.046021 259.323669,394.659332 
	C240.450043,396.304138 223.220016,390.534973 205.359070,387.127441 
	C192.211685,384.619202 179.759781,380.257080 167.236893,375.700195 
	C152.095764,370.190613 140.014542,360.533508 128.406403,349.961792 
	C125.797081,347.585449 123.964165,344.586365 122.624260,341.301819 
	C121.350136,338.178558 122.012627,335.306061 124.152733,332.946930 
	C126.148026,330.747406 128.843140,330.798187 131.577164,331.559845 
	C134.224503,332.297302 136.653122,333.619141 138.357285,335.615631 
	C152.208603,351.843170 171.417816,357.702057 190.828293,363.625183 
	C210.845474,369.733490 231.345993,372.553375 252.033981,374.622955 
	C262.488281,375.668793 272.004272,371.846344 281.702118,368.960510 
	C283.455597,368.438751 285.190125,367.853546 287.300232,367.146820 
z"/>
<path fill="#000000" opacity="1.000000" stroke="none" 
	d="
M255.044556,319.163635 
	C256.736298,318.905884 258.057373,318.729767 259.364441,318.480225 
	C266.152588,317.184235 268.795258,318.650909 270.685822,324.793518 
	C272.457977,330.551361 270.709869,333.812195 264.490265,336.373260 
	C256.153595,339.806061 248.596436,337.878174 242.387238,331.997009 
	C239.034088,328.820984 236.382004,328.211548 232.345276,330.113098 
	C229.535645,331.436584 226.329727,332.006409 223.244202,332.634827 
	C219.257645,333.446716 215.638672,332.145203 212.427505,329.870697 
	C209.460953,327.769531 208.247757,324.731232 208.825165,321.130920 
	C209.414444,317.456512 212.457932,316.685883 215.407516,315.972321 
	C217.819855,315.388733 220.400620,315.302185 222.683029,314.417908 
	C229.729752,311.687744 231.039536,305.072968 225.625290,299.815582 
	C223.231171,297.490814 220.711548,295.310333 218.987122,292.407776 
	C216.092316,287.535248 216.767563,283.763611 221.147064,280.129150 
	C226.900360,275.354614 237.706207,274.185852 244.324615,277.622253 
	C250.495239,280.826172 252.694916,287.153473 249.563904,293.657410 
	C246.560440,299.896423 245.312561,306.189667 247.407089,312.964203 
	C248.539215,316.625885 250.383057,319.293243 255.044556,319.163635 
z"/>
<path fill="#000000" opacity="1.000000" stroke="none" 
	d="
M134.814758,262.268616 
	C122.414597,261.249115 110.853462,258.031189 99.093506,255.924271 
	C87.328545,253.816483 75.615112,251.422470 63.858555,249.265839 
	C56.876629,247.985077 53.773563,245.484131 52.599052,239.758774 
	C51.360329,233.720383 53.466919,230.902054 59.540218,231.616531 
	C68.269783,232.643524 76.944405,234.184265 85.611603,235.684128 
	C100.498398,238.260345 115.368111,240.937363 130.230255,243.652664 
	C134.798645,244.487320 138.730194,246.409805 141.126938,250.750137 
	C144.932404,257.641571 143.186172,261.144714 134.814758,262.268616 
z"/>
<path fill="#000000" opacity="1.000000" stroke="none" 
	d="
M371.715271,270.140686 
	C368.444427,270.199554 365.605133,270.490997 362.848114,269.601715 
	C360.450104,268.828186 357.875732,268.157043 357.597656,265.058899 
	C357.334839,262.130341 359.288086,260.380493 361.575287,259.259705 
	C364.393463,257.878723 367.313934,256.438751 370.352386,255.817764 
	C393.108765,251.166885 415.903137,246.701401 438.690674,242.203629 
	C443.820282,241.191147 448.697815,243.892075 449.818146,248.263306 
	C450.824677,252.190567 448.206238,255.831924 442.700378,257.437866 
	C429.274750,261.353882 415.348907,262.747101 401.645935,265.260132 
	C391.854095,267.055878 381.995544,268.487946 371.715271,270.140686 
z"/>
<path fill="#000000" opacity="1.000000" stroke="none" 
	d="
M409.217773,306.896667 
	C396.134705,304.196442 382.868713,305.074066 370.593292,300.195221 
	C369.203674,299.642975 367.681946,299.357666 366.385803,298.648285 
	C362.957153,296.771790 359.600555,294.608124 360.312073,289.954529 
	C360.868011,286.318573 365.518219,283.496826 370.160034,284.065704 
	C383.352081,285.682465 396.517334,287.516388 409.701111,289.202301 
	C415.315796,289.920288 420.921173,290.613525 426.216644,292.781067 
	C430.915619,294.704468 434.153687,299.474854 434.126038,304.456970 
	C434.099213,309.290649 429.787506,312.318512 424.582520,310.874237 
	C419.619507,309.497101 414.764771,307.726349 409.217773,306.896667 
z"/>
<path fill="#000000" opacity="1.000000" stroke="none" 
	d="
M123.324890,298.434509 
	C112.605118,300.392365 102.330597,302.402405 92.008385,304.126984 
	C88.759506,304.669800 85.346649,304.779236 82.177315,303.316925 
	C78.487091,301.614258 76.624474,298.769531 76.667686,294.641266 
	C76.711777,290.428009 79.622543,288.711853 82.958313,287.976410 
	C98.855362,284.471741 114.756111,280.948517 130.752365,277.948029 
	C136.519547,276.866272 141.524094,279.944763 145.240677,284.240051 
	C149.155228,288.764069 147.320251,293.808899 141.395248,295.142517 
	C135.566742,296.454437 129.637024,297.316772 123.324890,298.434509 
z"/>
<path fill="#000000" opacity="1.000000" stroke="none" 
	d="
M279.584717,237.712036 
	C286.390503,230.306320 291.157349,228.922699 298.118073,232.112091 
	C305.736206,235.602722 309.281128,242.064377 308.322571,250.712662 
	C307.425629,258.804901 301.278748,263.957123 292.692719,263.250946 
	C286.217255,262.718323 280.136230,260.741821 277.031219,254.306442 
	C274.226349,248.493149 275.482513,242.996567 279.584717,237.712036 
z"/>
<path fill="#000000" opacity="1.000000" stroke="none" 
	d="
M217.227524,234.062134 
	C218.515335,244.045593 212.660889,252.657837 203.932953,254.115067 
	C196.184158,255.408829 187.358536,249.741577 185.466476,242.257065 
	C183.979919,236.376633 187.158600,229.789444 192.868896,226.916931 
	C201.472580,222.588928 212.745255,225.731033 217.227524,234.062134 
z"/>
</svg>