<?xml version="1.0" standalone="no"?>
<!DOCTYPE svg PUBLIC "-//W3C//DTD SVG 20010904//EN"
 "http://www.w3.org/TR/2001/REC-SVG-20010904/DTD/svg10.dtd">
<svg version="1.0" xmlns="http://www.w3.org/2000/svg"
 width="500.000000pt" height="500.000000pt" viewBox="0 0 500.000000 500.000000"
 preserveAspectRatio="xMidYMid meet">

<g transform="translate(0.000000,500.000000) scale(0.100000,-0.100000)"
fill="#000000" stroke="none">
<path d="M1537 3899 c-15 -11 -31 -38 -38 -62 -28 -106 -204 -410 -293 -505
-51 -56 -118 -174 -118 -208 0 -33 29 -64 61 -64 65 0 158 108 337 390 101
159 129 194 145 184 6 -3 30 -36 53 -73 24 -36 74 -102 112 -147 38 -44 83
-98 100 -120 31 -39 31 -39 100 -38 38 1 121 5 184 9 98 6 131 4 224 -14 59
-11 118 -21 130 -21 11 0 43 -12 70 -26 55 -29 105 -33 140 -11 49 33 124 115
185 207 88 130 150 205 170 205 12 0 34 -55 91 -225 68 -202 78 -226 105 -242
17 -10 46 -18 66 -18 71 0 79 49 30 172 -17 42 -60 177 -97 300 -73 246 -81
267 -120 297 -52 41 -97 25 -149 -52 -19 -29 -66 -87 -104 -129 -37 -43 -97
-119 -131 -170 -108 -159 -132 -174 -232 -144 -29 9 -120 21 -203 26 -82 6
-201 14 -264 19 l-115 8 -75 79 c-57 60 -95 113 -151 213 -41 73 -88 144 -103
157 -35 29 -76 31 -110 3z"/>
<path d="M1915 2732 c-39 -24 -54 -43 -65 -82 -22 -77 31 -150 123 -170 47
-11 59 -10 91 5 53 25 88 76 94 134 2 26 -1 58 -7 70 -30 56 -172 82 -236 43z"/>
<path d="M2855 2689 c-107 -62 -137 -187 -62 -255 84 -77 213 -68 259 17 25
48 24 124 -4 164 -44 66 -143 103 -193 74z"/>
<path d="M532 2678 c-7 -7 -12 -29 -12 -51 0 -50 39 -91 95 -101 22 -4 191
-36 375 -72 392 -77 424 -77 422 -4 -1 40 -37 89 -77 106 -36 15 -711 134
-760 134 -17 0 -36 -5 -43 -12z"/>
<path d="M3995 2506 c-374 -76 -417 -90 -423 -139 -5 -40 50 -62 133 -52 84 9
576 93 660 112 113 25 153 84 93 136 -31 27 -81 20 -463 -57z"/>
<path d="M2280 2241 c-54 -17 -92 -44 -105 -74 -17 -41 -6 -69 49 -127 54 -56
68 -83 60 -115 -9 -37 -48 -63 -116 -76 -87 -17 -106 -45 -74 -108 29 -55 109
-66 213 -29 l62 21 35 -31 c79 -69 163 -84 243 -43 50 25 62 55 41 109 -19 50
-45 61 -113 49 -45 -7 -60 -6 -80 7 -49 33 -59 144 -19 237 29 71 26 104 -15
143 -43 41 -117 56 -181 37z"/>
<path d="M1281 2223 c-303 -61 -486 -105 -502 -119 -44 -40 -6 -120 63 -131
25 -3 131 11 305 43 216 39 271 52 292 70 22 19 24 26 16 50 -19 54 -111 100
-174 87z"/>
<path d="M3623 2145 c-32 -23 -35 -52 -6 -85 35 -42 146 -74 320 -94 78 -9
177 -26 220 -37 125 -34 119 -33 148 -5 22 22 25 32 19 59 -11 52 -40 84 -92
101 -47 16 -485 76 -552 76 -20 0 -45 -7 -57 -15z"/>
<path d="M1232 1678 c-16 -16 -15 -73 2 -107 19 -35 110 -120 213 -197 63 -48
110 -72 238 -123 88 -35 187 -69 220 -76 33 -8 159 -36 280 -63 l220 -50 153
8 c84 5 177 11 205 15 90 13 214 53 316 105 54 27 126 55 160 63 96 22 171 86
171 144 0 29 -37 81 -72 103 -41 26 -67 20 -138 -29 -98 -68 -532 -211 -639
-211 -107 0 -396 39 -512 69 -353 92 -498 153 -609 256 -36 34 -78 71 -94 83
-32 24 -94 30 -114 10z"/>
</g>
</svg>
