<?xml version="1.0" standalone="no"?>
<!DOCTYPE svg PUBLIC "-//W3C//DTD SVG 20010904//EN"
 "http://www.w3.org/TR/2001/REC-SVG-20010904/DTD/svg10.dtd">
<svg version="1.0" xmlns="http://www.w3.org/2000/svg"
 width="500.000000pt" height="500.000000pt" viewBox="0 0 500.000000 500.000000"
 preserveAspectRatio="xMidYMid meet">

<g transform="translate(0.000000,500.000000) scale(0.100000,-0.100000)"
fill="#000000" stroke="none">
<path d="M1537 3899 c-15 -11 -31 -38 -38 -62 -28 -106 -204 -410 -293 -505
-51 -56 -118 -174 -118 -208 0 -33 29 -64 61 -64 65 0 158 108 337 390 101
159 129 194 145 184 6 -3 30 -36 53 -73 24 -36 74 -102 112 -147 38 -44 83
-98 100 -120 31 -39 31 -39 100 -38 38 1 121 5 184 9 98 6 131 4 224 -14 59
-11 118 -21 130 -21 11 0 43 -12 70 -26 55 -29 105 -33 140 -11 49 33 124 115
185 207 88 130 150 205 170 205 12 0 34 -55 91 -225 68 -202 78 -226 105 -242
17 -10 46 -18 66 -18 71 0 79 49 30 172 -17 42 -60 177 -97 300 -73 246 -81
267 -120 297 -52 41 -97 25 -149 -52 -19 -29 -66 -87 -104 -129 -37 -43 -97
-119 -131 -170 -112 -165 -126 -173 -256 -139 -58 16 -141 24 -318 34 l-239
13 -76 80 c-57 60 -95 113 -151 213 -41 73 -88 144 -103 157 -35 29 -76 31
-110 3z"/>
<path d="M1985 2755 c-5 -2 -22 -6 -37 -9 -65 -15 -114 -91 -101 -158 10 -48
64 -94 126 -108 47 -11 59 -10 91 5 53 25 88 76 94 135 5 59 -11 90 -60 112
-33 16 -95 28 -113 23z"/>
<path d="M2860 2693 c-27 -10 -72 -57 -92 -97 -30 -59 -21 -121 25 -162 84
-77 213 -68 259 17 41 76 16 167 -58 219 -33 22 -105 35 -134 23z"/>
<path d="M532 2678 c-7 -7 -12 -29 -12 -51 0 -56 38 -90 115 -105 33 -6 203
-39 377 -73 330 -64 378 -67 397 -30 23 42 -21 117 -83 141 -35 13 -709 130
-751 130 -17 0 -36 -5 -43 -12z"/>
<path d="M4330 2573 c-36 -8 -201 -41 -368 -73 -331 -64 -384 -82 -390 -133
-5 -40 50 -62 133 -52 84 9 576 93 660 112 111 25 150 80 96 135 -24 25 -59
28 -131 11z"/>
<path d="M2271 2238 c-50 -14 -82 -38 -96 -72 -17 -40 -5 -69 49 -126 24 -25
49 -55 55 -67 25 -49 -18 -107 -88 -119 -103 -17 -127 -42 -101 -105 26 -61
109 -75 217 -37 l62 21 35 -31 c79 -69 163 -84 243 -43 49 25 61 53 43 106
-18 55 -47 69 -115 55 -48 -10 -60 -9 -80 4 -50 33 -59 144 -19 237 29 71 26
104 -14 142 -48 46 -113 58 -191 35z"/>
<path d="M1275 2223 c-11 -3 -123 -27 -249 -53 -145 -31 -235 -55 -247 -66
-44 -40 -6 -120 63 -131 56 -8 563 85 594 110 30 23 30 46 2 82 -36 47 -106
71 -163 58z"/>
<path d="M3657 2159 c-62 -17 -77 -55 -40 -99 35 -42 146 -74 320 -94 78 -9
177 -26 220 -37 125 -34 119 -33 148 -5 22 22 25 32 19 59 -11 51 -40 84 -92
101 -26 9 -150 30 -277 46 -126 17 -239 32 -250 33 -11 2 -33 0 -48 -4z"/>
<path d="M1232 1678 c-16 -16 -15 -73 2 -107 19 -35 110 -120 213 -197 63 -48
111 -73 237 -123 87 -34 186 -69 220 -76 33 -8 160 -36 281 -64 l220 -49 160
9 c253 13 327 31 515 118 69 32 143 62 165 66 82 14 165 84 165 140 0 31 -36
83 -72 105 -41 26 -67 20 -138 -29 -97 -67 -532 -211 -637 -211 -64 0 -315 26
-393 41 -30 6 -104 24 -165 41 -343 94 -457 143 -565 243 -36 34 -78 71 -94
83 -32 24 -94 30 -114 10z"/>
</g>
</svg>
