<?xml version="1.0" standalone="no"?>
<!DOCTYPE svg PUBLIC "-//W3C//DTD SVG 1.0//EN" "http://www.w3.org/TR/2001/REC-SVG-20010904/DTD/svg10.dtd">
<svg xmlns="http://www.w3.org/2000/svg" xmlns:xlink="http://www.w3.org/1999/xlink" id="body_1" width="667" height="667">

<defs>
    <clipPath  id="1">

    <path id=""  clip-rule="evenodd" transform="matrix(1 0 0 1 0 0)"  d="M0 500L0 0L0 0L500 0L500 0L500 500L500 500L0 500z" />    </clipPath>
</defs>

<g transform="matrix(1.3333 0 0 1.3333 0 0)">
	<g clip-path="url(#1)" >
    <path id=""  transform="matrix(1 0 0 -1 0 500)"  d="M153.7 389.89993C 152.2 388.79996 150.59999 386.09995 149.9 383.69995L149.9 383.69995L149.9 383.69995C 147.09999 373.09995 129.49998 342.69995 120.59999 333.19995L120.59999 333.19995L120.59999 333.19995C 115.49999 327.59995 108.799995 315.79996 108.799995 312.39996L108.799995 312.39996L108.799995 312.39996C 108.799995 309.09995 111.7 305.99994 114.899994 305.99994L114.899994 305.99994L114.899994 305.99994C 121.399994 305.99994 130.7 316.79996 148.59999 344.99994L148.59999 344.99994L148.59999 344.99994C 158.7 360.89993 161.49998 364.39993 163.09999 363.39993L163.09999 363.39993L163.09999 363.39993C 163.7 363.09995 166.09999 359.79996 168.4 356.09995L168.4 356.09995L168.4 356.09995C 170.79999 352.49994 175.79999 345.89996 179.59999 341.39996L179.59999 341.39996L179.59999 341.39996C 183.4 336.99994 187.9 331.59995 189.59999 329.39996L189.59999 329.39996L189.59999 329.39996C 192.69998 325.49994 192.69998 325.49994 199.59999 325.59995L199.59999 325.59995L199.59999 325.59995C 203.4 325.69995 211.69998 326.09995 217.99998 326.49994L217.99998 326.49994L217.99998 326.49994C 227.79999 327.09995 231.09999 326.89996 240.39998 325.09995L240.39998 325.09995L240.39998 325.09995C 246.29999 323.99994 252.19998 322.99994 253.39998 322.99994L253.39998 322.99994L253.39998 322.99994C 254.49998 322.99994 257.69998 321.79996 260.4 320.39996L260.4 320.39996L260.4 320.39996C 265.9 317.49994 270.9 317.09995 274.4 319.29996L274.4 319.29996L274.4 319.29996C 279.3 322.59995 286.8 330.79996 292.9 339.99994L292.9 339.99994L292.9 339.99994C 301.69998 352.99994 307.9 360.49994 309.9 360.49994L309.9 360.49994L309.9 360.49994C 311.09998 360.49994 313.3 354.99994 318.99997 337.99994L318.99997 337.99994L318.99997 337.99994C 325.8 317.79996 326.8 315.39996 329.49997 313.79996L329.49997 313.79996L329.49997 313.79996C 331.19998 312.79996 334.09998 311.99994 336.09998 311.99994L336.09998 311.99994L336.09998 311.99994C 343.19998 311.99994 343.99997 316.89996 339.09998 329.19995L339.09998 329.19995L339.09998 329.19995C 337.4 333.39996 333.09998 346.89996 329.4 359.19995L329.4 359.19995L329.4 359.19995C 322.09998 383.79996 321.3 385.89993 317.4 388.89993L317.4 388.89993L317.4 388.89993C 312.19998 392.99994 307.69998 391.39993 302.49997 383.69995L302.49997 383.69995L302.49997 383.69995C 300.59998 380.79996 295.9 374.99994 292.09998 370.79996L292.09998 370.79996L292.09998 370.79996C 288.4 366.49994 282.4 358.89993 278.99997 353.79996L278.99997 353.79996L278.99997 353.79996C 267.8 337.29996 266.4 336.49994 253.39998 339.89996L253.39998 339.89996L253.39998 339.89996C 247.59999 341.49994 239.29999 342.29996 221.59999 343.29996L221.59999 343.29996L221.59999 343.29996L221.59999 343.29996L197.69998 344.59995L197.69998 344.59995L190.09999 352.59995L190.09999 352.59995L190.09999 352.59995C 184.4 358.59995 180.59999 363.89993 174.99998 373.89993L174.99998 373.89993L174.99998 373.89993C 170.9 381.19995 166.2 388.29996 164.7 389.59995L164.7 389.59995L164.7 389.59995C 161.2 392.49994 157.09999 392.69995 153.7 389.89993z" stroke="none" fill="#000000" fill-rule="nonzero" />
    <path id=""  transform="matrix(1 0 0 -1 0 500)"  d="M198.49998 275.49994C 197.99998 275.29996 196.29999 274.89996 194.79999 274.59995L194.79999 274.59995L194.79999 274.59995C 188.29999 273.09995 183.4 265.49994 184.69998 258.79996L184.69998 258.79996L184.69998 258.79996C 185.69998 253.99995 191.09999 249.39995 197.29999 247.99995L197.29999 247.99995L197.29999 247.99995C 201.99998 246.89995 203.19998 246.99995 206.4 248.49995L206.4 248.49995L206.4 248.49995C 211.69998 250.99995 215.19998 256.09995 215.79999 261.99994L215.79999 261.99994L215.79999 261.99994C 216.29999 267.89996 214.69998 270.99994 209.79999 273.19995L209.79999 273.19995L209.79999 273.19995C 206.49998 274.79996 200.29999 275.99994 198.49998 275.49994z" stroke="none" fill="#000000" fill-rule="nonzero" />
    <path id=""  transform="matrix(1 0 0 -1 0 500)"  d="M285.99997 269.29996C 283.3 268.29996 278.8 263.59995 276.8 259.59995L276.8 259.59995L276.8 259.59995C 273.8 253.69995 274.69998 247.49995 279.3 243.39995L279.3 243.39995L279.3 243.39995C 287.69998 235.69995 300.59998 236.59996 305.19998 245.09996L305.19998 245.09996L305.19998 245.09996C 309.3 252.69995 306.8 261.79996 299.4 266.99994L299.4 266.99994L299.4 266.99994C 296.09998 269.19995 288.9 270.49994 285.99997 269.29996z" stroke="none" fill="#000000" fill-rule="nonzero" />
    <path id=""  transform="matrix(1 0 0 -1 0 500)"  d="M53.199997 267.79996C 52.499996 267.09995 51.999996 264.89996 51.999996 262.69995L51.999996 262.69995L51.999996 262.69995C 51.999996 257.09995 55.799995 253.69995 63.499996 252.19995L63.499996 252.19995L63.499996 252.19995C 66.799995 251.59996 83.799995 248.29996 101.2 244.89995L101.2 244.89995L101.2 244.89995C 134.2 238.49995 138.99998 238.19995 140.9 241.89995L140.9 241.89995L140.9 241.89995C 143.2 246.09996 138.79999 253.59996 132.59999 255.99995L132.59999 255.99995L132.59999 255.99995C 129.09999 257.29996 61.699997 268.99994 57.499996 268.99994L57.499996 268.99994L57.499996 268.99994C 55.799995 268.99994 53.899998 268.49994 53.199997 267.79996z" stroke="none" fill="#000000" fill-rule="nonzero" />
    <path id=""  transform="matrix(1 0 0 -1 0 500)"  d="M432.99997 257.29996C 429.39996 256.49994 412.89996 253.19995 396.19998 249.99995L396.19998 249.99995L396.19998 249.99995C 363.09998 243.59996 357.8 241.79996 357.19998 236.69995L357.19998 236.69995L357.19998 236.69995C 356.69998 232.69995 362.19998 230.49995 370.49997 231.49995L370.49997 231.49995L370.49997 231.49995C 378.89996 232.39995 428.09998 240.79996 436.49997 242.69995L436.49997 242.69995L436.49997 242.69995C 447.59998 245.19995 451.49997 250.69995 446.09998 256.19995L446.09998 256.19995L446.09998 256.19995C 443.69998 258.69995 440.19998 258.99994 432.99997 257.29996z" stroke="none" fill="#000000" fill-rule="nonzero" />
    <path id=""  transform="matrix(1 0 0 -1 0 500)"  d="M227.09999 223.79996C 222.09999 222.39996 218.9 219.99995 217.49998 216.59996L217.49998 216.59996L217.49998 216.59996C 215.79999 212.59996 216.99998 209.69995 222.4 203.99995L222.4 203.99995L222.4 203.99995C 224.79999 201.49995 227.29999 198.49995 227.9 197.29996L227.9 197.29996L227.9 197.29996C 230.4 192.39996 226.09999 186.59996 219.09999 185.39996L219.09999 185.39996L219.09999 185.39996C 208.79999 183.69995 206.4 181.19995 208.99998 174.89996L208.99998 174.89996L208.99998 174.89996C 211.59999 168.79996 219.9 167.39996 230.69998 171.19997L230.69998 171.19997L230.69998 171.19997L230.69998 171.19997L236.89998 173.29996L236.89998 173.29996L240.39998 170.19997L240.39998 170.19997L240.39998 170.19997C 248.29999 163.29996 256.69998 161.79996 264.69998 165.89996L264.69998 165.89996L264.69998 165.89996C 269.59998 168.39996 270.8 171.19997 268.99997 176.49995L268.99997 176.49995L268.99997 176.49995C 267.19998 181.99995 264.3 183.39996 257.49997 181.99995L257.49997 181.99995L257.49997 181.99995C 252.69998 180.99995 251.49998 181.09996 249.49998 182.39996L249.49998 182.39996L249.49998 182.39996C 244.49998 185.69995 243.59999 196.79996 247.59999 206.09996L247.59999 206.09996L247.59999 206.09996C 250.49998 213.19995 250.19998 216.49995 246.19998 220.29996L246.19998 220.29996L246.19998 220.29996C 241.39998 224.89996 234.89998 226.09996 227.09999 223.79996z" stroke="none" fill="#000000" fill-rule="nonzero" />
    <path id=""  transform="matrix(1 0 0 -1 0 500)"  d="M127.49999 222.29996C 126.399994 221.99995 115.2 219.59996 102.59999 216.99995L102.59999 216.99995L102.59999 216.99995C 88.1 213.89996 79.1 211.49995 77.899994 210.39996L77.899994 210.39996L77.899994 210.39996C 73.49999 206.39996 77.299995 198.39996 84.2 197.29996L84.2 197.29996L84.2 197.29996C 89.799995 196.49995 140.49998 205.79996 143.59999 208.29996L143.59999 208.29996L143.59999 208.29996C 146.59999 210.59996 146.59999 212.89996 143.79999 216.49995L143.79999 216.49995L143.79999 216.49995C 140.2 221.19995 133.2 223.59996 127.49999 222.29996z" stroke="none" fill="#000000" fill-rule="nonzero" />
    <path id=""  transform="matrix(1 0 0 -1 0 500)"  d="M365.69998 215.89996C 359.49997 214.19995 357.99997 210.39996 361.69998 205.99995L361.69998 205.99995L361.69998 205.99995C 365.19998 201.79996 376.3 198.59996 393.69998 196.59996L393.69998 196.59996L393.69998 196.59996C 401.49997 195.69995 411.39996 193.99995 415.69998 192.89996L415.69998 192.89996L415.69998 192.89996C 428.19998 189.49995 427.59998 189.59996 430.49997 192.39996L430.49997 192.39996L430.49997 192.39996C 432.69998 194.59996 432.99997 195.59996 432.39996 198.29996L432.39996 198.29996L432.39996 198.29996C 431.3 203.39996 428.39996 206.69995 423.19998 208.39996L423.19998 208.39996L423.19998 208.39996C 420.59998 209.29996 408.19998 211.39996 395.49997 212.99995L395.49997 212.99995L395.49997 212.99995C 382.89996 214.69995 371.59998 216.19995 370.49997 216.29996L370.49997 216.29996L370.49997 216.29996C 369.39996 216.49995 367.19998 216.29996 365.69998 215.89996z" stroke="none" fill="#000000" fill-rule="nonzero" />
    <path id=""  transform="matrix(1 0 0 -1 0 500)"  d="M123.19999 167.79996C 121.59999 166.19997 121.69999 160.49995 123.399994 157.09996L123.399994 157.09996L123.399994 157.09996C 125.299995 153.59996 134.4 145.09996 144.7 137.39996L144.7 137.39996L144.7 137.39996C 150.99998 132.59996 155.79999 130.09996 168.4 125.09996L168.4 125.09996L168.4 125.09996C 177.09999 121.69996 186.99998 118.19996 190.4 117.49996L190.4 117.49996L190.4 117.49996C 193.69998 116.69996 206.4 113.89996 218.49998 111.09996L218.49998 111.09996L218.49998 111.09996L218.49998 111.09996L240.49998 106.19997L240.49998 106.19997L256.49997 107.09996L256.49997 107.09996L256.49997 107.09996C 281.8 108.39996 289.19998 110.19997 307.99997 118.89996L307.99997 118.89996L307.99997 118.89996C 314.9 122.09996 322.3 125.09996 324.49997 125.49996L324.49997 125.49996L324.49997 125.49996C 332.69998 126.89996 340.99997 133.89996 340.99997 139.49995L340.99997 139.49995L340.99997 139.49995C 340.99997 142.59996 337.4 147.79996 333.8 149.99995L333.8 149.99995L333.8 149.99995C 329.69998 152.59996 327.09998 151.99995 319.99997 147.09996L319.99997 147.09996L319.99997 147.09996C 310.3 140.39996 266.8 125.99996 256.3 125.99996L256.3 125.99996L256.3 125.99996C 249.89998 125.99996 224.79999 128.59996 216.99998 130.09996L216.99998 130.09996L216.99998 130.09996C 213.99998 130.69997 206.59999 132.49995 200.49998 134.19997L200.49998 134.19997L200.49998 134.19997C 166.2 143.59996 154.79999 148.49995 143.99998 158.49995L143.99998 158.49995L143.99998 158.49995C 140.4 161.89996 136.2 165.59996 134.59999 166.79996L134.59999 166.79996L134.59999 166.79996C 131.4 169.19997 125.19999 169.79996 123.19999 167.79996z" stroke="none" fill="#000000" fill-rule="nonzero" />
	</g>
</g>
</svg>